<?xml version="1.0" standalone="no"?>
<!DOCTYPE svg PUBLIC "-//W3C//DTD SVG 20010904//EN"
 "http://www.w3.org/TR/2001/REC-SVG-20010904/DTD/svg10.dtd">
<svg version="1.0" xmlns="http://www.w3.org/2000/svg"
 width="314.000000pt" height="314.000000pt" viewBox="0 0 314.000000 314.000000"
 preserveAspectRatio="xMidYMid meet">
<metadata>
Created by potrace 1.11, written by Peter Selinger 2001-2013
</metadata>
<g transform="translate(0.000000,314.000000) scale(0.100000,-0.100000)"
fill="#000000" stroke="none">
<path d="M2450 3109 c-25 -11 -337 -138 -695 -281 -357 -143 -753 -302 -880
-353 l-230 -94 0 -457 0 -457 257 -161 c141 -89 257 -164 258 -167 0 -3 -107
-47 -237 -98 -131 -51 -248 -100 -261 -107 l-22 -14 0 -455 0 -455 32 0 c17 0
310 112 677 259 355 143 759 304 896 358 l250 100 3 476 2 476 -226 148 c-124
81 -235 155 -247 164 -19 15 -8 20 226 114 l247 99 0 463 c0 255 -1 463 -2
462 -2 0 -23 -9 -48 -20z"/>
</g>
</svg>
